# xmcd
#
# Track frame offsets:
#	150
#	14425
#	27674
#	45208
#	57662
#	69873
#	90008
#	107077
#	120586
#	138379
#
# Disc length: 2033 seconds
#
# Revision: 0
# Processed by: cddbd v1.5.2PL0 Copyright (c) Steve Scherf et al.
# Submitted via: dBpowerAMP V4.0
#
DISCID=7a07ef0a
DTITLE=Jason Whited - Big Time
DYEAR=1900
DGENRE=Country
TTITLE0=Big Time
TTITLE1=I Went Down to Nashville
TTITLE2=Wrong Things Right
TTITLE3=Steady As She Goes
TTITLE4=Love Makes A Fool of Us All
TTITLE5=Let Me Down Easy
TTITLE6=I Forgot to Thank Her
TTITLE7=Lyin' Together
TTITLE8=I Know I'm Goin' to Heaven
TTITLE9=I'm So Lonesome I Could Cry
EXTD=
EXTT0=
EXTT1=
EXTT2=
EXTT3=
EXTT4=
EXTT5=
EXTT6=
EXTT7=
EXTT8=
EXTT9=
PLAYORDER=
